<?xml version="1.0" encoding="UTF-8"?>
<svg id="Ebene_1" xmlns="http://www.w3.org/2000/svg" version="1.1" viewBox="0 0 167.4 143.1">
  <!-- Generator: Adobe Illustrator 30.0.0, SVG Export Plug-In . SVG Version: 2.1.1 Build 123)  -->
  <defs>
    <style>
      .st0 {
        fill: #0b0b0b;
      }
    </style>
  </defs>
  <path class="st0" d="M162.6,50c-.8-20.5-7.6-34.3-20.7-42.3-7.9-4.7-15-5.8-23.2-5.9-7.5-.2-13.1.1-18.1,1-13.8,2.2-22.3,6.9-27.6,15.2-.4-.1-.9-.1-1.4-.1-3.3-.5-15.3-.8-18.3-.6h-.2c-.7.1-1.8.1-2.7.1h-1.1c-5.7.3-11.1.6-16.9,2.7-15.3,5.7-24.5,19.1-27.5,39.7-2.8,18.6-2.7,43.8,3.6,58.4,7.9,18.5,25.6,21.9,38.2,22.9,2.3.2,4.2.2,6.3.2,16.5,0,27.9-6,33.9-17.8,5.4,2.6,12.1,4.1,20.8,4.7,1.3.2,2.8.2,4.1.2,16.2,0,30.4-6.9,39.1-19,10.1-14.1,12.6-40.8,11.7-59.4ZM47.7,133.4c-17-1.4-26.6-7-31.4-18.1-5.6-13.2-5.6-37.4-3.3-54.2,2.5-17.9,9.8-28.8,22.2-33.3,5-1.9,10.3-2.2,15.7-2.3h.2c.7-.1,1.6-.1,2.6-.1h1.8c3.5,0,10.2.1,13.6.3-1.8,5-3,11.4-3.6,19.3-2.1,23.7-1.4,39,2.4,52.9,2.7,10,6.7,16.9,12.6,21.7-5.2,10.6-16,15.1-32.8,13.8ZM92.2,65.9l-.5,2.3c-4,24.7-5.2,30.8-8.5,43.2-3.5-3.7-6-8.6-7.8-15.4-3.3-13.1-4-27.7-2.3-50.3.6-7.9,1.8-13.9,3.6-18.5,5.1,1.8,8.8,4.4,11.4,8.1,5,6.6,6.3,16.7,4.1,30.6ZM135.7,51.4c-1.2.4-2.3.7-3.4.7-3,0-5.6-1.6-7.2-4.4-1.9-3.4-1.9-6.8,0-9.5,1.9-2.9,5.7-4.7,9.4-4.3,3.5.4,6.3,2.6,7.7,6.1,1.3,5.3-2.3,9.9-6.4,11.4Z"/>
  <path class="st0" d="M39,46.4c-3.6-.4-7.2,1.1-9.1,3.8s-2,6.3-.2,10h0c1.6,2.9,4.2,4.4,7.2,4.4s2.4-.2,3.7-.7c4-1.6,7.5-6,6.1-11.2-1.3-3.6-4.1-5.9-7.7-6.3Z"/>
</svg>