<?xml version="1.0" encoding="utf-8"?>
<!-- Generator: Adobe Illustrator 28.2.0, SVG Export Plug-In . SVG Version: 6.00 Build 0)  -->
<svg version="1.1" id="Ebene_1" xmlns="http://www.w3.org/2000/svg" xmlns:xlink="http://www.w3.org/1999/xlink" x="0px" y="0px"
	 viewBox="0 0 167.4 143.1" style="enable-background:new 0 0 167.4 143.1;" xml:space="preserve">
<style type="text/css">
	.st0{fill:#f4f4f4;}
</style>
<g>
	<path class="st0" d="M162.6,50c-0.8-20.5-7.6-34.3-20.7-42.3c-7.9-4.7-15-5.8-23.2-5.9c-7.5-0.2-13.1,0.1-18.1,1
		C86.8,5,78.3,9.7,73,18c-0.4-0.1-0.9-0.1-1.4-0.1c-3.3-0.5-15.3-0.8-18.3-0.6h-0.2c-0.7,0.1-1.8,0.1-2.7,0.1h-1.1
		c-5.7,0.3-11.1,0.6-16.9,2.7C17.1,25.8,7.9,39.2,4.9,59.8c-2.8,18.6-2.7,43.8,3.6,58.4c7.9,18.5,25.6,21.9,38.2,22.9
		c2.3,0.2,4.2,0.2,6.3,0.2c16.5,0,27.9-6,33.9-17.8c5.4,2.6,12.1,4.1,20.8,4.7c1.3,0.2,2.8,0.2,4.1,0.2c16.2,0,30.4-6.9,39.1-19
		C161,95.3,163.5,68.6,162.6,50z M47.7,133.4c-17-1.4-26.6-7-31.4-18.1c-5.6-13.2-5.6-37.4-3.3-54.2c2.5-17.9,9.8-28.8,22.2-33.3
		c5-1.9,10.3-2.2,15.7-2.3h0.2c0.7-0.1,1.6-0.1,2.6-0.1h1.8c3.5,0,10.2,0.1,13.6,0.3c-1.8,5-3,11.4-3.6,19.3
		c-2.1,23.7-1.4,39,2.4,52.9c2.7,10,6.7,16.9,12.6,21.7C75.3,130.2,64.5,134.7,47.7,133.4z M92.2,65.9l-0.5,2.3
		c-4,24.7-5.2,30.8-8.5,43.2c-3.5-3.7-6-8.6-7.8-15.4c-3.3-13.1-4-27.7-2.3-50.3c0.6-7.9,1.8-13.9,3.6-18.5
		c5.1,1.8,8.8,4.4,11.4,8.1C93.1,41.9,94.4,52,92.2,65.9z M135.7,51.4c-1.2,0.4-2.3,0.7-3.4,0.7c-3,0-5.6-1.6-7.2-4.4
		c-1.9-3.4-1.9-6.8-0.1-9.5c1.9-2.9,5.7-4.7,9.4-4.3c3.5,0.4,6.3,2.6,7.7,6.1C143.4,45.3,139.8,49.9,135.7,51.4z"/>
	<path class="st0" d="M39,46.4c-3.6-0.4-7.2,1.1-9.1,3.8s-2,6.3-0.2,10v0.1c1.6,2.8,4.2,4.3,7.2,4.3c1.2,0,2.4-0.2,3.7-0.7
		c4-1.6,7.5-6,6.1-11.2C45.4,49.1,42.6,46.8,39,46.4z"/>
</g>
</svg>
